<svg xmlns="http://www.w3.org/2000/svg" viewBox="0 0 320 320" role="img" aria-labelledby="title">
  <title id="title">Illustrated placeholder portrait</title>
  <rect width="320" height="320" rx="28" fill="#e7f0ec"/>
  <path d="M87 139c0-67 29-104 74-104 47 0 76 38 76 105v76H87Z" fill="#244d43"/>
  <circle cx="161" cy="126" r="61" fill="#e3b99a"/>
  <path d="M99 114c6-52 28-76 63-76 42 0 66 31 65 82-24-7-43-23-56-47-14 22-38 36-72 41Z" fill="#244d43"/>
  <circle cx="139" cy="130" r="5" fill="#173f36"/><circle cx="185" cy="130" r="5" fill="#173f36"/>
  <path d="M145 159c10 8 22 8 32 0" fill="none" stroke="#984f57" stroke-width="5" stroke-linecap="round"/>
  <path d="M54 300c9-67 48-103 107-103 58 0 97 36 106 103" fill="#0d5d4b"/>
  <path d="M127 202l34 35 34-35" fill="#fff" opacity=".9"/>
</svg>
